<svg width="143" height="149" viewBox="0 0 143 149" fill="none" xmlns="http://www.w3.org/2000/svg">
<path d="M2.92893 67.4289C-0.976311 71.3342 -0.976311 77.6658 2.92893 81.5711L66.5685 145.211C70.4738 149.116 76.8054 149.116 80.7107 145.211C84.6159 141.305 84.6159 134.974 80.7107 131.069L24.1421 74.5L80.7107 17.9315C84.6159 14.0262 84.6159 7.69456 80.7107 3.78932C76.8054 -0.115921 70.4738 -0.115921 66.5685 3.78932L2.92893 67.4289ZM133 84.5C138.523 84.5 143 80.0228 143 74.5C143 68.9772 138.523 64.5 133 64.5V84.5ZM10 84.5H133V64.5H10V84.5Z" fill="white"/>
</svg>
